<mxfile host="app.diagrams.net" modified="2023-09-01T06:11:35.981Z" agent="Mozilla/5.0 (Windows NT 10.0; Win64; x64) AppleWebKit/537.36 (KHTML, like Gecko) Chrome/116.0.0.0 Safari/537.36 Edg/116.0.1938.62" etag="0NEa-klmpvybH7nLCnix" version="21.7.1" type="github">
  <diagram id="C5RBs43oDa-KdzZeNtuy" name="Page-1">
    <mxGraphModel dx="552" dy="318" grid="1" gridSize="10" guides="1" tooltips="1" connect="1" arrows="1" fold="1" page="1" pageScale="1" pageWidth="827" pageHeight="1169" math="0" shadow="0">
      <root>
        <mxCell id="WIyWlLk6GJQsqaUBKTNV-0" />
        <mxCell id="WIyWlLk6GJQsqaUBKTNV-1" parent="WIyWlLk6GJQsqaUBKTNV-0" />
        <mxCell id="6yxmErxO7fgliX1uZgvy-5" value="" style="edgeStyle=orthogonalEdgeStyle;rounded=0;orthogonalLoop=1;jettySize=auto;html=1;" edge="1" parent="WIyWlLk6GJQsqaUBKTNV-1" source="WIyWlLk6GJQsqaUBKTNV-3" target="6yxmErxO7fgliX1uZgvy-4">
          <mxGeometry relative="1" as="geometry" />
        </mxCell>
        <mxCell id="WIyWlLk6GJQsqaUBKTNV-3" value="Open Main Menu" style="rounded=1;whiteSpace=wrap;html=1;fontSize=12;glass=0;strokeWidth=1;shadow=0;" parent="WIyWlLk6GJQsqaUBKTNV-1" vertex="1">
          <mxGeometry x="360" y="60" width="120" height="40" as="geometry" />
        </mxCell>
        <mxCell id="6yxmErxO7fgliX1uZgvy-2" style="edgeStyle=orthogonalEdgeStyle;rounded=0;orthogonalLoop=1;jettySize=auto;html=1;entryX=0.5;entryY=0;entryDx=0;entryDy=0;" edge="1" parent="WIyWlLk6GJQsqaUBKTNV-1" source="6yxmErxO7fgliX1uZgvy-0" target="WIyWlLk6GJQsqaUBKTNV-3">
          <mxGeometry relative="1" as="geometry" />
        </mxCell>
        <mxCell id="6yxmErxO7fgliX1uZgvy-0" value="&lt;font style=&quot;font-size: 5px;&quot;&gt;&lt;b&gt;START&lt;/b&gt;&lt;/font&gt;" style="ellipse;html=1;shape=startState;" vertex="1" parent="WIyWlLk6GJQsqaUBKTNV-1">
          <mxGeometry x="400" width="40" height="40" as="geometry" />
        </mxCell>
        <mxCell id="6yxmErxO7fgliX1uZgvy-7" value="" style="edgeStyle=orthogonalEdgeStyle;rounded=0;orthogonalLoop=1;jettySize=auto;html=1;" edge="1" parent="WIyWlLk6GJQsqaUBKTNV-1" source="6yxmErxO7fgliX1uZgvy-4" target="6yxmErxO7fgliX1uZgvy-6">
          <mxGeometry relative="1" as="geometry" />
        </mxCell>
        <mxCell id="6yxmErxO7fgliX1uZgvy-4" value="Await Main Menu Input" style="rounded=1;whiteSpace=wrap;html=1;fontSize=12;glass=0;strokeWidth=1;shadow=0;" vertex="1" parent="WIyWlLk6GJQsqaUBKTNV-1">
          <mxGeometry x="360" y="130" width="120" height="40" as="geometry" />
        </mxCell>
        <mxCell id="6yxmErxO7fgliX1uZgvy-8" style="edgeStyle=orthogonalEdgeStyle;rounded=1;orthogonalLoop=1;jettySize=auto;html=1;entryX=0;entryY=0.5;entryDx=0;entryDy=0;exitX=0.049;exitY=0.518;exitDx=0;exitDy=0;exitPerimeter=0;" edge="1" parent="WIyWlLk6GJQsqaUBKTNV-1" source="6yxmErxO7fgliX1uZgvy-6" target="6yxmErxO7fgliX1uZgvy-4">
          <mxGeometry relative="1" as="geometry">
            <Array as="points">
              <mxPoint x="384" y="240" />
              <mxPoint x="330" y="240" />
              <mxPoint x="330" y="150" />
            </Array>
          </mxGeometry>
        </mxCell>
        <mxCell id="6yxmErxO7fgliX1uZgvy-9" value="&lt;b&gt;No&lt;/b&gt;" style="edgeLabel;html=1;align=center;verticalAlign=middle;resizable=0;points=[];" vertex="1" connectable="0" parent="6yxmErxO7fgliX1uZgvy-8">
          <mxGeometry x="-0.7246" y="-1" relative="1" as="geometry">
            <mxPoint as="offset" />
          </mxGeometry>
        </mxCell>
        <mxCell id="6yxmErxO7fgliX1uZgvy-15" style="edgeStyle=orthogonalEdgeStyle;rounded=0;orthogonalLoop=1;jettySize=auto;html=1;entryX=0.5;entryY=0;entryDx=0;entryDy=0;" edge="1" parent="WIyWlLk6GJQsqaUBKTNV-1" source="6yxmErxO7fgliX1uZgvy-6" target="6yxmErxO7fgliX1uZgvy-12">
          <mxGeometry relative="1" as="geometry" />
        </mxCell>
        <mxCell id="6yxmErxO7fgliX1uZgvy-6" value="&lt;font style=&quot;font-size: 8px;&quot;&gt;Button Pressed?&lt;/font&gt;" style="rhombus;whiteSpace=wrap;html=1;rounded=1;glass=0;strokeWidth=1;shadow=0;" vertex="1" parent="WIyWlLk6GJQsqaUBKTNV-1">
          <mxGeometry x="380" y="200" width="80" height="80" as="geometry" />
        </mxCell>
        <mxCell id="6yxmErxO7fgliX1uZgvy-25" style="edgeStyle=orthogonalEdgeStyle;rounded=0;orthogonalLoop=1;jettySize=auto;html=1;entryX=0.834;entryY=0.342;entryDx=0;entryDy=0;entryPerimeter=0;" edge="1" parent="WIyWlLk6GJQsqaUBKTNV-1" source="6yxmErxO7fgliX1uZgvy-12" target="6yxmErxO7fgliX1uZgvy-17">
          <mxGeometry relative="1" as="geometry">
            <Array as="points">
              <mxPoint x="314" y="317" />
            </Array>
          </mxGeometry>
        </mxCell>
        <mxCell id="6yxmErxO7fgliX1uZgvy-28" style="edgeStyle=orthogonalEdgeStyle;rounded=0;orthogonalLoop=1;jettySize=auto;html=1;entryX=0.185;entryY=0.305;entryDx=0;entryDy=0;entryPerimeter=0;" edge="1" parent="WIyWlLk6GJQsqaUBKTNV-1" source="6yxmErxO7fgliX1uZgvy-12" target="6yxmErxO7fgliX1uZgvy-23">
          <mxGeometry relative="1" as="geometry">
            <Array as="points">
              <mxPoint x="510" y="314" />
            </Array>
          </mxGeometry>
        </mxCell>
        <mxCell id="6yxmErxO7fgliX1uZgvy-34" style="edgeStyle=orthogonalEdgeStyle;rounded=0;orthogonalLoop=1;jettySize=auto;html=1;entryX=0.33;entryY=0.15;entryDx=0;entryDy=0;entryPerimeter=0;" edge="1" parent="WIyWlLk6GJQsqaUBKTNV-1" source="6yxmErxO7fgliX1uZgvy-12" target="6yxmErxO7fgliX1uZgvy-20">
          <mxGeometry relative="1" as="geometry">
            <Array as="points">
              <mxPoint x="406" y="380" />
              <mxPoint x="406" y="380" />
            </Array>
          </mxGeometry>
        </mxCell>
        <mxCell id="6yxmErxO7fgliX1uZgvy-12" value="Check What Button Was Pressed" style="rounded=1;whiteSpace=wrap;html=1;fontSize=12;glass=0;strokeWidth=1;shadow=0;" vertex="1" parent="WIyWlLk6GJQsqaUBKTNV-1">
          <mxGeometry x="360" y="310" width="120" height="40" as="geometry" />
        </mxCell>
        <mxCell id="6yxmErxO7fgliX1uZgvy-26" style="edgeStyle=orthogonalEdgeStyle;rounded=0;orthogonalLoop=1;jettySize=auto;html=1;entryX=0;entryY=0.5;entryDx=0;entryDy=0;" edge="1" parent="WIyWlLk6GJQsqaUBKTNV-1" source="6yxmErxO7fgliX1uZgvy-17" target="6yxmErxO7fgliX1uZgvy-12">
          <mxGeometry relative="1" as="geometry" />
        </mxCell>
        <mxCell id="6yxmErxO7fgliX1uZgvy-27" value="&lt;b&gt;No&lt;/b&gt;" style="edgeLabel;html=1;align=center;verticalAlign=middle;resizable=0;points=[];" vertex="1" connectable="0" parent="6yxmErxO7fgliX1uZgvy-26">
          <mxGeometry x="-0.2103" relative="1" as="geometry">
            <mxPoint as="offset" />
          </mxGeometry>
        </mxCell>
        <mxCell id="6yxmErxO7fgliX1uZgvy-17" value="&lt;span style=&quot;font-size: 8px;&quot;&gt;Character Button?&lt;/span&gt;" style="rhombus;whiteSpace=wrap;html=1;rounded=1;glass=0;strokeWidth=1;shadow=0;" vertex="1" parent="WIyWlLk6GJQsqaUBKTNV-1">
          <mxGeometry x="240" y="290" width="80" height="80" as="geometry" />
        </mxCell>
        <mxCell id="6yxmErxO7fgliX1uZgvy-33" style="edgeStyle=orthogonalEdgeStyle;rounded=0;orthogonalLoop=1;jettySize=auto;html=1;entryX=0.5;entryY=1;entryDx=0;entryDy=0;" edge="1" parent="WIyWlLk6GJQsqaUBKTNV-1" source="6yxmErxO7fgliX1uZgvy-20" target="6yxmErxO7fgliX1uZgvy-12">
          <mxGeometry relative="1" as="geometry" />
        </mxCell>
        <mxCell id="6yxmErxO7fgliX1uZgvy-35" value="&lt;b&gt;No&lt;/b&gt;" style="edgeLabel;html=1;align=center;verticalAlign=middle;resizable=0;points=[];" vertex="1" connectable="0" parent="6yxmErxO7fgliX1uZgvy-33">
          <mxGeometry x="0.1137" relative="1" as="geometry">
            <mxPoint as="offset" />
          </mxGeometry>
        </mxCell>
        <mxCell id="6yxmErxO7fgliX1uZgvy-20" value="&lt;font style=&quot;font-size: 8px;&quot;&gt;Shop Button?&lt;/font&gt;" style="rhombus;whiteSpace=wrap;html=1;rounded=1;glass=0;strokeWidth=1;shadow=0;" vertex="1" parent="WIyWlLk6GJQsqaUBKTNV-1">
          <mxGeometry x="380" y="380" width="80" height="80" as="geometry" />
        </mxCell>
        <mxCell id="6yxmErxO7fgliX1uZgvy-29" style="edgeStyle=orthogonalEdgeStyle;rounded=0;orthogonalLoop=1;jettySize=auto;html=1;entryX=1;entryY=0.5;entryDx=0;entryDy=0;" edge="1" parent="WIyWlLk6GJQsqaUBKTNV-1" source="6yxmErxO7fgliX1uZgvy-23" target="6yxmErxO7fgliX1uZgvy-12">
          <mxGeometry relative="1" as="geometry" />
        </mxCell>
        <mxCell id="6yxmErxO7fgliX1uZgvy-30" value="&lt;b&gt;No&lt;/b&gt;" style="edgeLabel;html=1;align=center;verticalAlign=middle;resizable=0;points=[];" vertex="1" connectable="0" parent="6yxmErxO7fgliX1uZgvy-29">
          <mxGeometry x="-0.2186" y="-1" relative="1" as="geometry">
            <mxPoint as="offset" />
          </mxGeometry>
        </mxCell>
        <mxCell id="6yxmErxO7fgliX1uZgvy-40" value="" style="edgeStyle=orthogonalEdgeStyle;rounded=1;orthogonalLoop=1;jettySize=auto;html=1;exitX=0.505;exitY=0.065;exitDx=0;exitDy=0;exitPerimeter=0;entryX=0.5;entryY=1;entryDx=0;entryDy=0;" edge="1" parent="WIyWlLk6GJQsqaUBKTNV-1" source="6yxmErxO7fgliX1uZgvy-23" target="6yxmErxO7fgliX1uZgvy-36">
          <mxGeometry relative="1" as="geometry">
            <Array as="points">
              <mxPoint x="560" y="290" />
              <mxPoint x="525" y="290" />
            </Array>
          </mxGeometry>
        </mxCell>
        <mxCell id="6yxmErxO7fgliX1uZgvy-23" value="&lt;font style=&quot;font-size: 8px;&quot;&gt;Play Button?&lt;/font&gt;" style="rhombus;whiteSpace=wrap;html=1;rounded=1;glass=0;strokeWidth=1;shadow=0;" vertex="1" parent="WIyWlLk6GJQsqaUBKTNV-1">
          <mxGeometry x="520" y="290" width="80" height="80" as="geometry" />
        </mxCell>
        <mxCell id="6yxmErxO7fgliX1uZgvy-39" value="" style="edgeStyle=orthogonalEdgeStyle;rounded=0;orthogonalLoop=1;jettySize=auto;html=1;exitX=0.5;exitY=0;exitDx=0;exitDy=0;" edge="1" parent="WIyWlLk6GJQsqaUBKTNV-1" source="6yxmErxO7fgliX1uZgvy-36" target="6yxmErxO7fgliX1uZgvy-38">
          <mxGeometry relative="1" as="geometry">
            <Array as="points">
              <mxPoint x="525" y="210" />
              <mxPoint x="525" y="210" />
            </Array>
          </mxGeometry>
        </mxCell>
        <mxCell id="6yxmErxO7fgliX1uZgvy-36" value="Close Main Menu" style="rounded=1;whiteSpace=wrap;html=1;fontSize=12;glass=0;strokeWidth=1;shadow=0;" vertex="1" parent="WIyWlLk6GJQsqaUBKTNV-1">
          <mxGeometry x="500" y="230" width="50" height="40" as="geometry" />
        </mxCell>
        <mxCell id="6yxmErxO7fgliX1uZgvy-42" value="" style="edgeStyle=orthogonalEdgeStyle;rounded=0;orthogonalLoop=1;jettySize=auto;html=1;" edge="1" parent="WIyWlLk6GJQsqaUBKTNV-1" source="6yxmErxO7fgliX1uZgvy-38" target="6yxmErxO7fgliX1uZgvy-41">
          <mxGeometry relative="1" as="geometry" />
        </mxCell>
        <mxCell id="6yxmErxO7fgliX1uZgvy-38" value="Spawn Player" style="rounded=1;whiteSpace=wrap;html=1;fontSize=12;glass=0;strokeWidth=1;shadow=0;" vertex="1" parent="WIyWlLk6GJQsqaUBKTNV-1">
          <mxGeometry x="500" y="150" width="50" height="40" as="geometry" />
        </mxCell>
        <mxCell id="6yxmErxO7fgliX1uZgvy-45" style="edgeStyle=orthogonalEdgeStyle;rounded=1;orthogonalLoop=1;jettySize=auto;html=1;entryX=0;entryY=0.5;entryDx=0;entryDy=0;" edge="1" parent="WIyWlLk6GJQsqaUBKTNV-1" source="6yxmErxO7fgliX1uZgvy-41" target="6yxmErxO7fgliX1uZgvy-44">
          <mxGeometry relative="1" as="geometry">
            <Array as="points">
              <mxPoint x="525" y="60" />
            </Array>
          </mxGeometry>
        </mxCell>
        <mxCell id="6yxmErxO7fgliX1uZgvy-41" value="Start Run" style="rounded=1;whiteSpace=wrap;html=1;fontSize=12;glass=0;strokeWidth=1;shadow=0;" vertex="1" parent="WIyWlLk6GJQsqaUBKTNV-1">
          <mxGeometry x="510" y="90" width="30" height="30" as="geometry" />
        </mxCell>
        <mxCell id="6yxmErxO7fgliX1uZgvy-52" value="" style="edgeStyle=orthogonalEdgeStyle;rounded=1;orthogonalLoop=1;jettySize=auto;html=1;exitX=0.5;exitY=1;exitDx=0;exitDy=0;" edge="1" parent="WIyWlLk6GJQsqaUBKTNV-1" source="6yxmErxO7fgliX1uZgvy-44" target="6yxmErxO7fgliX1uZgvy-51">
          <mxGeometry relative="1" as="geometry">
            <Array as="points">
              <mxPoint x="690" y="125" />
            </Array>
          </mxGeometry>
        </mxCell>
        <mxCell id="6yxmErxO7fgliX1uZgvy-54" value="" style="edgeStyle=orthogonalEdgeStyle;rounded=0;orthogonalLoop=1;jettySize=auto;html=1;" edge="1" parent="WIyWlLk6GJQsqaUBKTNV-1" source="6yxmErxO7fgliX1uZgvy-44" target="6yxmErxO7fgliX1uZgvy-53">
          <mxGeometry relative="1" as="geometry" />
        </mxCell>
        <mxCell id="6yxmErxO7fgliX1uZgvy-44" value="Player Running" style="rounded=1;whiteSpace=wrap;html=1;fontSize=12;glass=0;strokeWidth=1;shadow=0;" vertex="1" parent="WIyWlLk6GJQsqaUBKTNV-1">
          <mxGeometry x="630" y="40" width="120" height="40" as="geometry" />
        </mxCell>
        <mxCell id="6yxmErxO7fgliX1uZgvy-51" value="Scroll Background" style="rounded=1;whiteSpace=wrap;html=1;fontSize=12;glass=0;strokeWidth=1;shadow=0;" vertex="1" parent="WIyWlLk6GJQsqaUBKTNV-1">
          <mxGeometry x="550" y="100" width="70" height="50" as="geometry" />
        </mxCell>
        <mxCell id="6yxmErxO7fgliX1uZgvy-53" value="Player Running" style="rounded=1;whiteSpace=wrap;html=1;fontSize=12;glass=0;strokeWidth=1;shadow=0;" vertex="1" parent="WIyWlLk6GJQsqaUBKTNV-1">
          <mxGeometry x="630" y="170" width="120" height="40" as="geometry" />
        </mxCell>
      </root>
    </mxGraphModel>
  </diagram>
</mxfile>
